<?xml version="1.0" encoding="UTF-8"?>
<svg width="256" height="256" version="1.1" viewBox="0 0 67.733 67.733" xmlns="http://www.w3.org/2000/svg">
 <g fill="#2563eb">
  <path d="m16.933 8.4667c-4.7037 0-8.4667 3.763-8.4667 8.4667v33.867c0 4.7037 3.763 8.4667 8.4667 8.4667h33.867c4.7037 0 8.4667-3.763 8.4667-8.4667v-25.4l-16.933-16.933zm0 4.2333h21.167v16.933h16.933v20.633c0 2.3519-1.8815 4.2333-4.2333 4.2333h-33.867c-2.3519 0-4.2333-1.8815-4.2333-4.2333v-33.867c0-2.3519 1.8815-4.2333 4.2333-4.2333zm25.4 1.8521 11.248 11.248h-11.248z"/>
  <rect x="16.933" y="42.333" width="33.867" height="4.2333" rx="2.1167"/>
  <rect x="16.933" y="33.867" width="33.867" height="4.2333" rx="2.1167"/>
  <rect x="16.933" y="25.4" width="16.933" height="4.2333" rx="2.1167"/>
 </g>
</svg>
